<?xml version="1.0" encoding="utf-8"?>
<!-- Generator: Adobe Illustrator 25.2.3, SVG Export Plug-In . SVG Version: 6.00 Build 0)  -->
<svg version="1.1" id="레이어_1" xmlns="http://www.w3.org/2000/svg" xmlns:xlink="http://www.w3.org/1999/xlink" x="0px"
	 y="0px" viewBox="0 0 215.5 20.7" style="enable-background:new 0 0 215.5 20.7;" xml:space="preserve">
<g>
	<path d="M6.7,0C2.7,0,0,1.6,0,6.3v8.3c0,4.6,2,6.1,5.4,6.1c2.7,0,3.9-1,4.5-1.9v1.6h3.4v-11H6.2v2.9h3.3v2.3c0,2-0.9,3.3-2.8,3.3
		c-2,0-2.7-0.7-2.7-2.4v-10c0-1.7,0.7-2.4,2.7-2.4c2.1,0,2.8,0.7,2.8,2.4v1.6h3.9V5.4C13.3,1.8,10.7,0,6.7,0z"/>
	<polygon points="17.2,20.3 28.8,20.3 28.8,17.4 21.1,17.4 21.1,11.3 28.1,11.3 28.1,8.3 21.1,8.3 21.1,3.3 28.8,3.3 28.8,0.4 
		17.2,0.4 	"/>
	<polygon points="42.5,15.5 37.2,0.4 32.4,0.4 32.4,20.3 36.3,20.3 36.3,5.1 41.5,20.3 46.4,20.3 46.4,0.4 42.5,0.4 	"/>
	<polygon points="48.8,3.3 53.7,3.3 53.7,20.3 57.6,20.3 57.6,3.3 62.5,3.3 62.5,0.4 48.8,0.4 	"/>
	<polygon points="68.9,0.4 65,0.4 65,20.3 76.6,20.3 76.6,17.4 68.9,17.4 	"/>
	<polygon points="79,20.3 90.7,20.3 90.7,17.4 82.9,17.4 82.9,11.3 89.9,11.3 89.9,8.3 82.9,8.3 82.9,3.3 90.7,3.3 90.7,0.4 79,0.4 
			"/>
	<polygon points="109.3,15.6 106.1,0.4 100.6,0.4 100.6,20.3 104.5,20.3 104.5,4.9 107.8,20.3 110.9,20.3 114.2,5 114.2,20.3 
		118.1,20.3 118.1,0.4 112.6,0.4 	"/>
	<path d="M128.5,0c-4.3,0-6.6,1.6-6.6,6.5v7.7c0,4.9,2.4,6.5,6.6,6.5s6.6-1.6,6.6-6.5V6.5C135.1,1.6,132.8,0,128.5,0z M131.2,15.1
		c0,2-0.7,2.6-2.7,2.6c-2,0-2.7-0.6-2.7-2.6V5.6c0-2.1,0.7-2.7,2.7-2.7c2,0,2.7,0.6,2.7,2.7V15.1z"/>
	<polygon points="148.9,15.5 143.7,0.4 138.9,0.4 138.9,20.3 142.8,20.3 142.8,5.1 148,20.3 152.8,20.3 152.8,0.4 148.9,0.4 	"/>
	<path d="M165.8,9.7L162,7.3c-0.9-0.4-1.4-1.4-1.3-2.4c0-1.4,0.3-2.1,2.1-2.1c1.9,0,2.2,0.7,2.2,2.4v1h3.9V5c0-3-1.5-5-6.1-5
		c-4.6,0-6.1,2.4-6.1,4.9c0,2.9,0.9,3.7,3.2,5.2l3.7,2.5c1.1,0.5,1.7,1.7,1.6,2.9c0,1.4-0.4,2.3-2.2,2.3s-2.5-0.5-2.5-2.6v-1.5h-3.9
		v1.7c0,3.6,1.8,5.2,6.4,5.2c3.8,0,6.1-1.7,6.1-5.2C169.1,11.9,167.9,11.1,165.8,9.7z"/>
	<polygon points="170.9,3.3 175.7,3.3 175.7,20.3 179.6,20.3 179.6,3.3 184.5,3.3 184.5,0.4 170.9,0.4 	"/>
	<polygon points="190.9,11.3 197.9,11.3 197.9,8.3 190.9,8.3 190.9,3.3 198.6,3.3 198.6,0.4 187,0.4 187,20.3 198.7,20.3 
		198.7,17.4 190.9,17.4 	"/>
	<path d="M214.8,17.8v-4.3c0-1.9-1.2-3.2-3.5-3.4c2.8-0.4,4-2,4-4.2c0-2.7-0.7-5.5-5.9-5.5h-7.1v19.9h3.9v-8.8h2.7
		c1.4,0,2,0.5,2,2.1v4.3c0,0.8,0.2,1.7,0.6,2.4h4C215,19.6,214.7,18.7,214.8,17.8z M208.8,8.5h-2.7V3.3h2.7c2.1,0,2.4,0.9,2.4,2.6
		S210.9,8.5,208.8,8.5z"/>
</g>
</svg>
